# xmcd
#
# Track frame offsets: 
#        180
#        19823
#        40369
#        57032
#        81673
#        98219
#        117999
#        140116
#        153934
#        173006
#        191129
#
# Disc length: 2733 seconds
#
# Revision: 0
# Processed by: cddbd v1.5.2PL0 Copyright (c) Steve Scherf et al.
# Submitted via: ExactAudioCopy v1.3
#
DISCID=970aab0b
DTITLE=Imperial Crowns - Imperial Crowns
DYEAR=2000
DGENRE=Modern Electric Blues
TTITLE0=Ramblin' Woman Blues
TTITLE1=(I'm Gonna) Hunt You Down
TTITLE2=Preachin' The Blues
TTITLE3=Love TKO
TTITLE4=Big Boy
TTITLE5=Blues Look Watcha Done
TTITLE6=Praise His Name
TTITLE7=Since I Met You Baby
TTITLE8=Altar Of Love
TTITLE9=Stone Righteous
TTITLE10=Jack O' Diamond Blues
EXTD=
EXTT0=
EXTT1=
EXTT2=
EXTT3=
EXTT4=
EXTT5=
EXTT6=
EXTT7=
EXTT8=
EXTT9=
EXTT10=
PLAYORDER=
